<svg xmlns="http://www.w3.org/2000/svg" width="29" height="29.285" viewBox="0 0 29 29.285">
  <g id="_x31__stroke" transform="translate(0.135)">
    <g id="Google" transform="translate(0)">
      <rect id="Rectangle_20" data-name="Rectangle 20" width="29" height="29" transform="translate(-0.135 0.285)" fill="none"/>
      <path id="Path_391" data-name="Path 391" d="M7.3,42.068a8.568,8.568,0,0,1,.435-2.69l-4.884-3.73a14.592,14.592,0,0,0,0,12.836l4.882-3.737A8.573,8.573,0,0,1,7.3,42.068" transform="translate(-1.057 -27.576)" fill="#fbbc05" fill-rule="evenodd"/>
      <path id="Path_392" data-name="Path 392" d="M20.963,5.929a8.4,8.4,0,0,1,5.343,1.91l4.222-4.216A14.5,14.5,0,0,0,7.938,8.072l4.884,3.73a8.553,8.553,0,0,1,8.141-5.873" transform="translate(-6.14)" fill="#ea4335" fill-rule="evenodd"/>
      <path id="Path_393" data-name="Path 393" d="M20.963,81.754a8.553,8.553,0,0,1-8.14-5.873L7.938,79.61a14.469,14.469,0,0,0,13.025,8.073,13.83,13.83,0,0,0,9.456-3.612l-4.636-3.584a8.978,8.978,0,0,1-4.82,1.267" transform="translate(-6.14 -58.698)" fill="#34a853" fill-rule="evenodd"/>
      <path id="Path_394" data-name="Path 394" d="M79.31,55a12,12,0,0,0-.33-2.635H65.457v5.6h7.784A6.526,6.526,0,0,1,70.277,62.3l4.636,3.584A14.413,14.413,0,0,0,79.31,55" transform="translate(-50.635 -40.507)" fill="#4285f4" fill-rule="evenodd"/>
    </g>
  </g>
</svg>
